<svg width="576" height="242" viewBox="0 0 576 242" fill="none" xmlns="http://www.w3.org/2000/svg">
<path d="M575 120.5C575 145.274 558.144 167.877 530.519 184.341C502.914 200.792 464.713 211 422.465 211L121 211L121 30L422.465 30C464.713 30 502.914 40.2081 530.519 56.6592C558.144 73.1228 575 95.7256 575 120.5Z" stroke="#444444" stroke-width="2"/>
<path d="M121 0C105.11 -1.89486e-07 89.3757 3.12976 74.6953 9.21058C60.0149 15.2914 46.676 24.2042 35.4401 35.4401C24.2042 46.676 15.2914 60.0149 9.21058 74.6953C3.12976 89.3757 -5.05086e-07 105.11 0 121C5.05086e-07 136.89 3.12976 152.624 9.21058 167.305C15.2914 181.985 24.2042 195.324 35.4401 206.56C46.676 217.796 60.0149 226.709 74.6953 232.789C89.3757 238.87 105.11 242 121 242L121 121V0Z" fill="#2A176F"/>
</svg>
